<?xml version="1.0" standalone="no"?>
<!DOCTYPE svg PUBLIC "-//W3C//DTD SVG 20010904//EN"
 "http://www.w3.org/TR/2001/REC-SVG-20010904/DTD/svg10.dtd">
<svg version="1.0" xmlns="http://www.w3.org/2000/svg"
 width="992.000000pt" height="992.000000pt" viewBox="0 0 992.000000 992.000000"
 preserveAspectRatio="xMidYMid meet">
<metadata>
Created by potrace 1.11, written by Peter Selinger 2001-2013
</metadata>
<g transform="translate(0.000000,992.000000) scale(0.100000,-0.100000)"
fill="#000000" stroke="none">
<path d="M2877 9884 c-1 -1 -36 -4 -77 -8 -62 -5 -132 -18 -230 -41 -102 -23
-300 -114 -407 -185 -672 -448 -846 -1340 -392 -2005 50 -73 61 -87 144 -176
64 -68 131 -128 217 -191 15 -11 18 -30 19 -108 0 -52 0 -105 0 -117 l-1 -23
-189 0 c-207 0 -207 0 -215 -61 -3 -19 -8 -47 -11 -64 -9 -48 -24 -136 -30
-180 -4 -22 -8 -51 -10 -63 -27 -162 -27 -717 -1 -859 2 -10 7 -42 11 -71 8
-57 8 -56 -188 -402 -54 -96 -383 -682 -409 -730 -17 -30 -58 -104 -93 -165
-34 -60 -106 -189 -160 -285 -110 -196 -120 -213 -173 -308 -44 -77 -54 -102
-44 -102 5 0 932 -210 1167 -265 20 -4 20 -11 20 -1005 l0 -1000 792 0 793 0
1 -27 c0 -16 0 -337 0 -715 l0 -688 1909 0 1909 0 0 1062 c0 585 0 1083 0
1108 l1 45 103 77 c408 304 773 710 1050 1170 168 278 370 746 432 1004 3 10
18 73 35 139 16 66 32 134 35 150 3 17 12 62 20 100 7 39 17 94 20 124 4 30 8
61 10 70 6 33 26 241 31 316 4 78 5 972 0 1045 -8 136 -20 233 -48 400 -12 69
-21 137 -22 153 l0 27 -153 0 c-84 0 -153 2 -153 4 0 2 20 53 46 113 57 136
59 140 77 183 8 19 43 103 77 185 34 83 67 164 75 180 7 17 63 152 125 300 61
149 116 279 121 290 5 11 49 117 99 235 l90 214 0 573 c0 315 -2 573 -4 573
-3 0 -211 -154 -463 -343 l-458 -343 -74 -175 c-41 -95 -84 -196 -96 -224 -25
-57 -81 -185 -101 -230 -7 -16 -45 -106 -85 -200 -39 -93 -79 -186 -87 -205
-9 -19 -16 -37 -17 -40 -1 -3 -10 -23 -19 -45 -22 -48 -54 -123 -66 -150 -4
-11 -15 -36 -23 -55 -9 -19 -77 -179 -152 -355 -75 -176 -145 -339 -156 -363
-11 -24 -27 -61 -35 -82 l-16 -40 -373 0 -372 0 -33 73 c-18 39 -54 117 -80
172 -26 55 -62 134 -81 175 -18 41 -48 104 -65 140 -17 36 -30 67 -28 69 1 1
67 4 146 6 79 1 152 5 163 8 11 3 34 8 50 12 93 23 233 111 302 190 44 50 99
140 118 195 38 106 42 160 41 513 l-1 347 40 1 c22 0 92 0 157 0 81 0 118 4
120 12 4 10 3 921 -1 938 0 4 -215 7 -476 7 l-475 -1 0 -478 0 -478 138 0 c75
0 147 0 158 0 l21 -1 -2 -347 c-2 -344 -5 -377 -39 -439 -39 -72 -127 -137
-206 -152 -73 -14 -397 -13 -409 2 -5 6 -34 65 -64 131 -30 66 -72 156 -92
200 -21 44 -50 108 -66 143 -16 34 -42 90 -58 125 -16 34 -45 98 -66 142 -20
44 -41 90 -46 102 -8 21 7 29 231 140 131 65 239 120 239 123 0 3 -131 61
-292 129 -160 69 -314 134 -342 147 -183 81 -946 404 -955 404 -5 0 -10 -6
-10 -12 0 -24 -355 -1256 -361 -1253 -3 2 -7 29 -8 58 -2 59 -5 75 -26 182
-79 380 -326 723 -669 930 -168 100 -379 172 -568 191 -60 6 -226 12 -231 8z
m206 -329 c27 -3 70 -10 95 -16 26 -6 54 -12 62 -14 150 -33 356 -153 490
-288 126 -126 214 -268 269 -435 44 -130 55 -199 55 -342 0 -131 -8 -198 -40
-308 -23 -81 -112 -277 -137 -305 -7 -7 -25 -32 -42 -56 -67 -100 -211 -226
-348 -306 l-64 -38 0 -206 0 -206 -157 -3 c-134 -2 -156 0 -157 13 0 8 0 227
-1 486 l0 472 66 35 c287 151 336 543 96 765 -303 281 -786 73 -799 -343 -2
-75 25 -179 64 -246 38 -65 124 -145 192 -179 l60 -30 1 -487 0 -488 -158 0
-157 0 -1 198 c-1 108 -1 204 -2 212 0 8 -23 26 -51 40 -75 37 -208 140 -279
217 -161 175 -259 380 -291 607 -76 557 280 1083 831 1226 66 18 78 20 155 26
39 4 71 8 73 9 4 3 113 -3 175 -10z m4142 3 c7 -4 10 -63 10 -155 l0 -148
-158 -3 -157 -3 0 158 0 158 148 0 c81 0 152 -3 157 -7z m-1955 -346 c129 -55
253 -107 274 -116 l40 -17 -68 -34 c-38 -19 -71 -36 -73 -39 -4 -4 10 -37 74
-176 20 -41 47 -100 60 -130 14 -30 41 -88 59 -127 19 -40 50 -108 70 -150 19
-43 46 -100 59 -128 39 -83 86 -187 115 -251 l28 -62 -295 2 -296 1 -48 105
c-59 130 -88 192 -134 295 -20 44 -47 102 -60 130 -13 27 -49 106 -80 175 -31
69 -60 128 -63 132 -4 4 -36 -6 -70 -23 -35 -17 -64 -30 -66 -28 -2 3 155 558
163 576 1 0 18 -7 39 -17 20 -9 143 -63 272 -118z m3708 -131 l-3 -48 -83 42
-83 42 83 62 83 62 3 -56 c2 -31 2 -77 0 -104z m-199 -306 c121 -60 152 -80
148 -93 -5 -17 -480 -1160 -497 -1197 -5 -11 -50 -117 -99 -235 l-89 -215
-221 -3 c-122 -1 -221 0 -221 2 0 4 381 896 419 981 10 22 96 223 191 447 164
383 175 406 195 398 12 -5 91 -43 174 -85z m-5753 -186 c72 -44 97 -128 61
-200 -33 -66 -78 -92 -150 -87 -49 4 -62 9 -92 38 -81 78 -68 192 29 251 41
25 110 25 152 -2z m1763 -221 c5 -13 30 -67 55 -121 25 -55 46 -100 46 -102 0
-2 16 -37 35 -78 19 -41 35 -79 35 -85 0 -5 -21 -13 -47 -16 -27 -4 -59 -9
-73 -12 -48 -8 -185 -83 -241 -131 -114 -98 -192 -235 -215 -374 -4 -24 -8
-125 -9 -224 -2 -99 -3 -183 -4 -187 0 -5 -142 -8 -315 -8 l-314 0 0 116 1
115 71 57 c187 148 308 296 413 505 47 94 113 282 113 322 0 16 10 31 27 42
39 26 386 200 401 202 7 0 16 -9 21 -21z m341 -754 c27 -55 37 -75 174 -376
l94 -208 -348 0 c-269 0 -349 3 -352 13 -11 29 -1 354 12 392 39 118 149 210
264 222 28 3 52 6 53 7 1 0 19 1 40 0 35 0 40 -4 63 -50z m960 -24 c19 -41 55
-120 81 -175 26 -55 58 -125 72 -155 69 -151 90 -196 98 -213 9 -16 -6 -17
-291 -15 l-301 3 -135 295 c-75 162 -138 303 -141 312 -7 22 3 23 318 23 l266
0 33 -75z m2531 -897 c0 -10 2 -25 3 -33 5 -26 18 -152 22 -215 5 -81 5 -1001
0 -1045 -3 -19 -7 -66 -10 -104 -7 -83 -23 -213 -36 -281 -5 -27 -12 -63 -15
-80 -5 -29 -49 -229 -60 -269 -92 -363 -285 -793 -513 -1141 -76 -117 -237
-330 -282 -375 -3 -3 -23 -25 -44 -50 -106 -122 -281 -294 -397 -390 -41 -34
-83 -69 -94 -78 -32 -27 -165 -125 -227 -168 -50 -34 -57 -43 -58 -74 -1 -19
-2 -484 -2 -1032 l0 -998 -1588 0 -1588 0 0 683 c-1 375 -1 697 -1 715 l-1 32
-789 0 c-622 0 -790 3 -793 13 -2 6 -4 442 -4 967 l1 955 -75 18 c-41 10 -84
20 -94 22 -10 3 -109 25 -220 51 -111 25 -210 48 -221 50 -119 25 -407 93
-411 97 -3 3 10 31 29 63 19 33 45 79 59 104 21 38 305 544 371 660 11 19 41
73 67 120 47 84 203 363 252 450 29 52 81 144 119 213 23 42 25 54 18 93 -5
25 -11 66 -15 92 -3 26 -8 55 -10 65 -19 100 -26 587 -11 717 4 36 10 85 12
109 3 24 8 47 11 52 3 5 1383 9 3300 9 3130 0 3294 -1 3295 -17z"/>
<path d="M2464 6163 c8 -111 33 -200 81 -298 90 -182 233 -309 430 -380 104
-38 316 -54 435 -34 353 63 609 347 637 709 l5 75 -161 0 -161 0 -1 -35 c-5
-251 -192 -431 -454 -439 -273 -8 -462 150 -491 411 -3 29 -8 55 -11 58 -2 3
-74 5 -160 5 l-155 0 6 -72z"/>
</g>
</svg>
