<?xml version="1.0" standalone="no"?>
<!DOCTYPE svg PUBLIC "-//W3C//DTD SVG 20010904//EN"
 "http://www.w3.org/TR/2001/REC-SVG-20010904/DTD/svg10.dtd">
<svg version="1.0" xmlns="http://www.w3.org/2000/svg"
 width="4096.000000pt" height="4096.000000pt" viewBox="0 0 4096.000000 4096.000000"
 preserveAspectRatio="xMidYMid meet">
<metadata>
Created by potrace 1.11, written by Peter Selinger 2001-2013
</metadata>
<g transform="translate(0.000000,4096.000000) scale(0.100000,-0.100000)"
fill="#000000" stroke="none">
<path d="M16038 33259 c-44 -27 -71 -77 -65 -123 5 -35 8 -41 149 -286 138
-240 442 -769 465 -810 11 -19 88 -152 170 -295 83 -143 160 -277 172 -297 11
-21 70 -124 131 -228 60 -105 110 -195 110 -199 0 -4 -51 -34 -112 -66 -254
-131 -517 -287 -733 -434 -115 -78 -381 -274 -451 -332 -22 -19 -59 -49 -82
-67 -158 -128 -465 -419 -623 -589 -65 -70 -204 -227 -236 -268 -18 -22 -64
-80 -103 -130 -39 -49 -77 -97 -83 -105 -47 -58 -221 -310 -300 -437 -363
-576 -615 -1182 -771 -1853 -46 -196 -83 -425 -111 -685 -19 -169 -36 -558
-25 -573 7 -11 13873 -10 13881 0 3 4 4 38 3 75 -4 134 -16 371 -19 399 -2 16
-7 62 -10 101 -3 40 -8 81 -9 90 -2 10 -7 47 -11 83 -4 36 -9 74 -11 85 -2 11
-11 63 -19 115 -9 52 -24 136 -35 185 -10 50 -21 101 -24 115 -10 48 -15 72
-21 90 -3 10 -8 28 -10 39 -3 12 -7 31 -10 43 -38 175 -202 658 -285 843 -10
22 -33 74 -51 115 -214 482 -575 1049 -929 1460 -21 25 -48 56 -60 70 -89 105
-317 339 -472 485 -225 211 -538 460 -783 625 -44 30 -82 57 -85 60 -3 3 -23
17 -45 30 -22 13 -71 43 -108 67 -105 68 -389 229 -519 295 -65 33 -118 63
-118 68 0 9 48 94 165 295 29 50 62 106 73 126 11 19 55 96 97 170 43 74 92
159 108 189 17 30 38 66 47 80 9 14 30 50 47 80 16 30 79 141 140 245 403 698
515 898 520 929 12 73 -39 132 -119 142 -83 10 -82 12 -425 -581 -172 -297
-341 -589 -377 -650 -35 -60 -138 -239 -229 -396 -182 -315 -184 -319 -252
-436 -26 -46 -51 -83 -56 -83 -5 0 -17 4 -27 9 -20 11 -63 29 -152 65 -36 15
-74 31 -85 36 -216 95 -800 276 -1115 345 -31 7 -273 55 -299 60 -126 22 -326
53 -386 60 -22 3 -62 8 -90 11 -27 4 -66 8 -85 9 -19 2 -64 6 -100 9 -36 4
-85 9 -110 11 -304 29 -991 25 -1295 -9 -22 -2 -74 -7 -115 -11 -41 -3 -82 -8
-90 -10 -8 -2 -42 -7 -75 -10 -33 -3 -71 -7 -85 -10 -13 -3 -42 -7 -65 -10
-22 -3 -51 -8 -65 -10 -14 -2 -43 -7 -65 -10 -23 -3 -52 -8 -65 -10 -14 -3
-36 -7 -50 -10 -14 -3 -36 -7 -50 -10 -14 -3 -38 -7 -55 -10 -98 -16 -491
-111 -625 -151 -152 -46 -474 -152 -523 -173 -26 -11 -49 -20 -52 -21 -3 0
-21 -7 -41 -15 -20 -8 -38 -15 -41 -15 -2 0 -69 -27 -149 -60 -79 -33 -146
-60 -148 -60 -3 0 -19 26 -37 58 -18 31 -138 239 -267 462 -129 223 -268 464
-310 535 -41 72 -132 229 -202 350 -70 121 -190 328 -266 459 -77 132 -151
248 -165 258 -40 30 -97 33 -141 7z m1369 -4229 c198 -74 355 -247 408 -451
18 -69 24 -216 11 -288 -38 -218 -209 -415 -426 -490 -86 -30 -129 -36 -241
-35 -284 3 -534 191 -614 462 -60 202 -17 424 116 593 24 29 52 61 64 70 11
10 34 29 50 43 40 35 148 90 215 111 30 9 87 19 125 22 39 3 71 6 73 8 8 7
169 -26 219 -45z m6458 36 c244 -25 481 -227 549 -466 68 -242 6 -476 -174
-657 -140 -141 -383 -209 -591 -166 -80 16 -218 76 -264 114 -140 115 -211
228 -252 399 -13 53 -6 235 12 295 62 215 228 387 441 456 59 19 193 39 219
32 6 -1 33 -4 60 -7z"/>
<path d="M11045 24882 c-85 -8 -241 -45 -329 -76 -267 -96 -503 -271 -687
-511 -41 -53 -169 -257 -169 -269 0 -3 -13 -33 -29 -68 -52 -114 -91 -239
-123 -398 l-23 -115 0 -3315 c0 -1823 3 -3340 8 -3370 45 -329 167 -622 359
-865 223 -282 556 -484 893 -542 17 -2 48 -8 70 -12 41 -8 283 -6 345 3 484
66 921 403 1146 881 65 139 125 333 140 450 3 22 7 45 9 52 16 48 18 545 18
3388 0 2880 -2 3333 -18 3385 -3 8 -7 29 -9 45 -15 122 -78 318 -149 465 -156
324 -410 587 -702 728 -94 46 -127 59 -175 75 -99 33 -154 46 -270 64 -33 5
-267 9 -305 5z"/>
<path d="M29688 24885 c-2 -1 -32 -5 -68 -8 -36 -4 -76 -9 -90 -12 -14 -4 -45
-11 -70 -17 -90 -21 -197 -61 -293 -109 -84 -42 -125 -67 -241 -149 -82 -58
-228 -209 -314 -325 -137 -184 -264 -490 -297 -711 -4 -21 -8 -50 -11 -64 -2
-14 -7 -61 -11 -105 -8 -105 -8 -6480 0 -6565 4 -36 9 -76 12 -90 2 -14 7 -41
9 -60 6 -43 9 -54 35 -155 24 -90 44 -151 54 -161 4 -4 7 -14 7 -22 0 -20 83
-190 132 -270 120 -198 295 -379 483 -501 60 -39 179 -104 195 -106 3 0 14 -6
25 -12 27 -15 164 -60 223 -74 108 -25 224 -36 337 -33 183 5 280 21 430 75
307 108 572 319 759 603 71 107 165 302 196 406 12 41 26 86 31 100 11 31 15
56 39 200 18 111 19 234 19 3390 0 3550 3 3350 -54 3570 -98 384 -320 717
-626 940 -68 50 -226 141 -265 153 -11 3 -63 21 -118 41 -54 19 -115 38 -135
41 -20 3 -43 7 -51 10 -49 13 -331 29 -342 20z"/>
<path d="M13480 23496 c0 -7741 2 -9419 10 -9476 45 -312 312 -697 631 -911
110 -74 170 -106 269 -140 120 -43 117 -43 1015 -45 479 -1 873 -3 876 -3 3
-1 5 -819 6 -1818 0 -1622 3 -1991 18 -2035 2 -7 6 -31 9 -53 11 -82 69 -291
94 -342 5 -10 27 -56 48 -103 174 -381 500 -684 877 -814 197 -69 452 -92 662
-60 171 26 362 97 522 195 201 123 411 342 523 544 18 33 41 74 50 90 55 100
132 328 154 455 12 71 17 98 23 125 3 17 7 880 8 1918 1 1038 5 1891 9 1894
11 12 2388 9 2393 -2 2 -6 5 -859 7 -1895 1 -1037 5 -1901 9 -1920 3 -19 9
-53 13 -75 54 -332 214 -657 440 -892 61 -63 94 -93 184 -167 40 -32 153 -102
218 -135 131 -66 280 -114 421 -135 85 -13 356 -14 416 -2 80 17 135 27 140
27 3 -1 21 5 40 13 20 9 36 15 38 15 6 -1 50 16 117 44 336 140 623 423 794
781 39 81 111 286 120 341 2 17 9 53 14 80 15 72 22 123 28 196 2 35 5 889 5
1897 l1 1832 21 1 c12 0 405 2 872 3 891 2 888 2 1005 48 67 26 193 88 200 98
3 4 16 13 30 20 79 41 245 189 354 315 115 133 245 369 288 525 l23 85 0 5325
0 5325 -6997 1 -6998 0 0 -1170z"/>
</g>
</svg>
